<svg width="20" height="20" viewBox="0 0 20 20" fill="none" xmlns="http://www.w3.org/2000/svg">
<rect x="0.6" y="0.6" width="18.8" height="18.8" rx="9.4" fill="white" stroke="#FF0000" stroke-width="1.2"/>
<mask id="mask0_39_24" style="mask-type:alpha" maskUnits="userSpaceOnUse" x="0" y="0" width="20" height="20">
<rect width="20" height="20" rx="10" fill="white"/>
</mask>
<g mask="url(#mask0_39_24)">
<path d="M0.937333 3.39011C0.52066 3.54317 -0.0490773 3.20303 -0.100098 3.39011C-0.100098 3.76321 0.435209 3.84948 0.62271 4.08739C0.894325 4.43204 1.6516 5.01426 2.11929 5.69453C2.32291 5.94403 2.54967 6.11602 2.77251 6.34922C2.9392 6.52365 3.11755 6.68796 3.28906 6.85763C3.97303 7.75235 4.77235 8.56144 4.95943 8.58569C5.41861 8.64521 5.12099 8.20303 5.47813 8.34759C5.57167 8.42412 5.58017 7.93845 5.58017 7.79487C5.66521 7.32718 5.52383 7.16665 5.47813 7.02956C5.40567 6.81219 5.00832 6.85794 4.85738 6.68092C4.6363 6.08569 4.29698 5.95457 4.10909 5.72854C3.74697 5.29294 3.2206 5.2219 2.79106 4.85269C2.50719 4.60869 2.11929 4.23225 1.92371 4.08739C1.58985 3.96943 1.28332 3.46448 0.937333 3.39011Z" fill="#FF0000"/>
<path d="M6.52419 9.24047C6.27759 9.24047 6.60923 8.84932 6.06871 8.94215C5.51167 9.03782 6.29227 8.27457 6.32861 8.22006C6.36912 8.15929 6.83609 8.16714 6.89834 8.16054C7.10609 8.1385 7.47913 8.18063 7.68065 8.12653C8.14834 8.22006 7.87366 8.69078 8.2929 8.61972C9.18575 8.68775 9.16992 7.77643 9.33031 7.95646C9.74698 8.42415 10.1551 7.95646 10.3677 8.48367C10.6058 8.75578 11.1841 8.35612 11.065 9.20646C11.0092 9.33142 10.8184 8.95986 10.2572 9.24047C9.81109 9.42316 9.56179 9.27652 9.08971 9.30821C8.85304 9.32409 8.6379 9.32546 8.40539 9.27262C8.10194 9.20365 6.83076 9.2955 6.52419 9.24047Z" fill="#FF0000"/>
<path d="M6.47322 5.73704C6.24305 5.52681 6.15646 5.41334 6.06506 5.11631C6.0153 5.01678 6.21349 4.13504 6.27764 4.05338C6.42996 3.85953 6.4755 4.51256 7.10247 4.5976C7.36218 4.63282 7.49332 4.144 7.81676 4.13863C8.07963 4.13427 8.18078 4.34306 8.429 4.24896C8.86767 4.08267 9.03974 4.28299 9.37288 3.95984C9.5859 3.75322 9.54024 3.38378 9.82356 3.27957C9.95753 3.2303 10.0447 2.6333 10.4783 2.6333C10.974 2.85017 11.5668 2.47173 11.1841 2.99895C11.16 3.15536 11.6518 3.3731 11.1841 3.56867C11.4392 3.92582 11.7909 4.6752 11.7283 4.83568C10.5293 4.75915 10.8905 5.52563 10.6994 5.82208C10.5889 6.23874 10.2083 7.02438 9.93411 7.26765C9.46642 7.26765 9.64499 6.72344 9.08377 6.96153C8.91954 6.95809 8.42576 6.89074 8.26744 6.85099C7.69771 6.97854 7.6552 6.82306 7.04295 6.74375C6.87312 6.59958 6.90035 6.4769 6.71132 6.35779C6.59063 6.28174 6.57964 5.83424 6.47322 5.73704Z" fill="#FF0000"/>
<path d="M11.947 5.57444C11.6858 6.46839 12.1024 5.91567 12.1704 6.47689C12.1704 6.45195 11.9579 6.82921 12.0684 7.02962C12.0684 7.08914 11.9919 7.72689 12.0854 7.72689C12.1875 7.85445 12.4054 7.79901 12.4851 7.78642C12.5701 7.45479 12.6041 7.27621 12.5673 6.97665C12.5754 6.88338 12.3896 6.67961 12.4766 6.61295C12.5276 6.52792 12.5855 6.35989 12.6041 6.37486C12.6807 6.2388 12.5646 5.85669 12.7317 5.89867C13.0973 6.05173 12.9613 6.34084 13.0803 6.53941C13.2334 6.93608 13.1228 6.74901 13.3014 7.15717C13.5905 7.04663 13.7592 6.77916 13.7776 6.74901C13.8351 6.65456 13.5565 6.2303 13.4794 6.01771C13.1143 5.4735 12.9273 5.60955 13.7336 5.24194C13.7687 5.17015 14.2963 5.13336 13.8286 4.83574C13.446 4.94629 13.1909 5.00502 13.0378 5.00502C12.9085 5.09047 12.8932 4.81873 12.8932 4.62316C12.9023 4.58898 12.7402 4.32554 13.0888 4.01941C13.4853 4.01941 13.616 4.10445 14.1432 4.09595C14.3504 4.00077 14.5669 4.10489 14.7025 3.92034C14.7549 3.84914 14.7926 3.90518 14.7926 3.81235C14.7926 3.75798 14.7503 3.75595 14.7031 3.73101C14.4984 3.62286 14.2751 3.87325 14.0412 3.84935C13.6693 3.81134 13.6623 3.63834 13.2929 3.69331C13.0845 3.72431 12.842 3.66543 12.7147 3.84934C12.5743 4.05209 12.5236 4.22016 12.4681 4.45309C12.2084 5.54292 12.0561 5.17777 11.947 5.57444Z" fill="#FF0000"/>
<path d="M19.8636 6.62978C19.891 7.27955 19.8999 7.79167 19.8999 8.44106C19.8488 8.44106 19.6405 8.37712 19.5914 8.36238C19.4947 8.33338 19.4274 8.25519 19.324 8.23324C19.2314 8.21361 19.1622 8.25427 19.0799 8.21123C18.9221 8.12866 18.7562 8.10598 18.6173 7.98827C18.4972 7.88647 18.4 7.31406 18.3041 7.1902C18.1838 7.03493 18.0553 6.89001 17.9207 6.74686C17.7891 6.60674 17.6521 6.67406 17.4774 6.58766C16.9407 6.4437 17.4169 6.1583 16.2208 6.1583C16.3625 5.51589 15.8992 6.36106 15.7059 6.30765C15.6605 6.29511 15.633 6.27727 15.6164 6.23342C15.5377 5.73946 15.248 5.78963 15.2552 5.73946C15.2781 5.58173 16.052 5.71177 16.0052 5.54808C15.9931 5.50558 15.9068 5.47367 15.874 5.45453C15.6802 5.34148 15.3643 5.48603 15.1639 5.38582C15.0563 5.332 14.5292 4.96854 14.6188 4.80968C14.6528 4.74945 14.8853 4.56745 14.9453 4.54551C15.1589 4.46749 15.2401 4.23187 15.7997 4.41258C15.8754 4.4087 16.0539 4.71804 16.0989 4.78459C16.1663 4.88439 16.2134 5.0247 16.2466 5.1381C16.2866 5.27424 16.3752 5.3561 16.456 5.47337C16.5974 5.67847 16.6865 5.67684 16.9577 5.65194C17.3493 5.616 17.0258 5.47337 17.7469 5.18894C17.9087 5.03691 18.0829 4.70679 18.3183 4.72507C18.5871 4.74595 18.8202 5.07888 19.0799 5.14115C19.3007 5.19406 19.5725 5.17287 19.7909 5.20927C19.8129 5.21294 19.8259 5.23201 19.8275 5.253C19.8426 5.44904 19.8444 5.64829 19.8468 5.84479C19.8501 6.10772 19.8526 6.36736 19.8636 6.62978Z" fill="#FF0000"/>
<path fill-rule="evenodd" clip-rule="evenodd" d="M9.78822 15.8652L10.5668 14.9111C10.7439 14.6844 10.6601 14.4994 10.5438 14.0088C10.4584 13.6458 10.5255 13.2361 10.7822 12.9668C11.5162 12.1983 13.0091 10.7 13.0091 10.7L13.2058 10.8542L11.6667 12.8247L11.9959 13.0819L13.6089 11.1688L13.8085 11.3243L12.3256 13.3394L12.6549 13.597L14.2741 11.6881L14.4587 11.8328L12.9841 13.8542L13.3138 14.1113L14.853 12.1408L15.0334 12.2816C15.0334 12.2816 13.9706 14.0988 13.4088 15.0053C13.2092 15.3267 12.8149 15.4892 12.436 15.4917C11.9313 15.4946 11.7338 15.4546 11.5537 15.6851L10.603 16.85C11.6221 18.0845 12.5032 19.1553 12.9258 19.6962C13.2471 20.1076 12.9529 20.7053 12.4265 20.7053C12.2514 20.7053 12.0709 20.634 11.9401 20.4665L9.78822 17.842C9.78822 17.842 8.17234 19.8275 7.65678 20.4652C7.14122 21.1029 6.22096 20.3327 6.66859 19.6933L9.00175 16.85L8.45576 16.2686C8.45576 16.2686 8.06982 16.5683 7.64553 16.9013C6.32349 14.7407 5.03354 12.0412 5.03354 11.0851C5.03354 11.0317 5.01937 10.7 5.33863 10.7C5.44074 10.7 5.5441 10.7483 5.61954 10.8433C5.83168 11.1109 7.87643 13.5578 9.78822 15.8652Z" fill="#FF0000"/>
</g>
</svg>
